# xmcd
#
# Track frame offsets:
#       182
#       22412
#       42265
#       62400
#       77570
#       96802
#       117965
#       139442
#       157000
#       182947
#       205957
#       234405
#
# Disc length: 3400 seconds
#
# Revision: 0
# Processed by: cddbd v1.5.1PL0 Copyright (c) Steve Scherf et al.
# Submitted via: WhereIsIt 3.62
#
DISCID=a80d460c
DTITLE=Big Mama and The Blues Messengers
DYEAR=1993
DGENRE=
TTITLE0=Take Time Out - I've Got News for You
TTITLE1=Breaking up Sombody's Home
TTITLE2=If you love me
TTITLE3=Hey bartender
TTITLE4=Big bad bill is swueet william now
TTITLE5=St. louis blues
TTITLE6=I'm good
TTITLE7=I don't want you - Ain't that dandy
TTITLE8=Stop
TTITLE9=Here I am
TTITLE10=He walks right in
TTITLE11=Sweet home Chicago
EXTD=Live recording made in La Boîte
EXTT0=
EXTT1=
EXTT2=
EXTT3=
EXTT4=
EXTT5=
EXTT6=
EXTT7=
EXTT8=
EXTT9=
EXTT10=
EXTT11=
PLAYORDER=
